<svg width="355" height="405" viewBox="0 0 355 405" fill="none" xmlns="http://www.w3.org/2000/svg">
<path d="M198.565 376.155C179.723 381.116 163.634 361.868 171.858 344.205L195.691 293.019C202.803 277.745 223.383 275.049 234.189 287.977L264.957 324.786C275.763 337.714 269.46 357.489 253.166 361.779L198.565 376.155Z" fill="#FFA0A0"/>
<path d="M245.19 342.53C228.995 353.363 207.51 340.413 209.526 321.033L217.705 242.409C219.448 225.65 238.025 216.392 252.455 225.09L309.98 259.764C324.411 268.462 324.899 289.212 310.895 298.58L245.19 342.53Z" fill="#FF8D8D"/>
<path d="M305.875 279.764C303.274 299.073 279.344 306.604 266.154 292.264L195.093 215.012C183.686 202.612 189.045 182.56 205.116 177.502L290.191 150.729C306.262 145.671 322.139 159.041 319.889 175.739L305.875 279.764Z" fill="#F37676"/>
<path d="M304.321 160.476C315.861 176.174 303.876 198.213 284.426 197.058L149.095 189.022C132.276 188.024 122.204 169.876 130.253 155.074L185.288 53.8786C193.337 39.077 214.045 37.6688 224.025 51.2443L304.321 160.476Z" fill="#EC6262"/>
<path d="M106.5 81.5002C106.5 74.1462 107.948 66.8642 110.763 60.07C113.577 53.2757 117.702 47.1023 122.902 41.9022C128.102 36.7022 134.276 32.5772 141.07 29.763C147.864 26.9487 155.146 25.5002 162.5 25.5002C169.854 25.5003 177.136 26.9487 183.93 29.763C190.725 32.5773 196.898 36.7022 202.098 41.9023C207.298 47.1024 211.423 53.2758 214.237 60.07C217.052 66.8643 218.5 74.1463 218.5 81.5003L204.199 81.5003C204.199 76.0243 203.121 70.6018 201.025 65.5426C198.93 60.4834 195.858 55.8865 191.986 52.0143C188.114 48.1422 183.517 45.0706 178.458 42.975C173.399 40.8794 167.976 39.8008 162.5 39.8008C157.024 39.8008 151.602 40.8794 146.542 42.975C141.483 45.0705 136.886 48.1421 133.014 52.0143C129.142 55.8864 126.07 60.4833 123.975 65.5425C121.879 70.6018 120.801 76.0242 120.801 81.5002H106.5Z" fill="#25283D"/>
<path d="M93.5 116.5C93.5 125.889 101.111 133.5 110.5 133.5L121.5 133.5C124.261 133.5 126.5 131.262 126.5 128.5L126.5 84.5002C126.5 81.7388 124.261 79.5002 121.5 79.5002L110.5 79.5002C101.111 79.5002 93.5 87.1114 93.5 96.5002L93.5 116.5Z" fill="#25283D"/>
<path d="M41.6211 195.348C22.4417 191.917 15.9488 167.685 30.8434 155.125L151.622 53.2716C164.502 42.4096 184.305 48.6265 188.666 64.9013L223.411 194.572C227.772 210.847 213.731 226.132 197.145 223.166L41.6211 195.348Z" fill="#D55252"/>
<path d="M167.5 120.5C167.5 129.337 160.337 136.5 151.5 136.5C142.663 136.5 135.5 129.337 135.5 120.5C135.5 111.664 142.663 104.5 151.5 104.5C160.337 104.5 167.5 111.664 167.5 120.5Z" fill="#EFD9CE"/>
<path fill-rule="evenodd" clip-rule="evenodd" d="M115.988 1.16824C116.172 1.97611 115.665 2.7797 114.858 2.9631C99.5568 6.43679 75.6988 14.315 53.9521 26.6306C32.1562 38.974 12.7737 55.6089 5.95103 76.4667C-0.872775 97.328 4.71977 116.009 16.7627 128.836C28.8355 141.695 47.4226 148.697 66.6052 146.015C67.4257 145.9 68.1838 146.472 68.2985 147.293C68.4132 148.113 67.8411 148.871 67.0207 148.986C46.8699 151.804 27.3133 144.456 14.5756 130.89C1.80808 117.291 -4.0765 97.4726 3.09969 75.534C10.277 53.5918 30.4779 36.4767 52.4737 24.0201C74.5187 11.5357 98.6608 3.56387 114.193 0.0375506C115.001 -0.145857 115.805 0.360369 115.988 1.16824Z" fill="#D55252"/>
<path fill-rule="evenodd" clip-rule="evenodd" d="M171.988 1.16824C172.172 1.97611 171.665 2.7797 170.858 2.9631C155.557 6.43679 131.699 14.315 109.952 26.6306C88.1562 38.974 68.7737 55.6089 61.951 76.4667C55.1272 97.328 60.7198 116.009 72.7627 128.836C84.8355 141.695 103.423 148.697 122.605 146.015C123.426 145.9 124.184 146.472 124.299 147.293C124.413 148.113 123.841 148.871 123.021 148.986C102.87 151.804 83.3133 144.456 70.5756 130.89C57.8081 117.291 51.9235 97.4726 59.0997 75.534C66.277 53.5918 86.4779 36.4767 108.474 24.0201C130.519 11.5357 154.661 3.56387 170.193 0.0375506C171.001 -0.145857 171.805 0.360369 171.988 1.16824Z" fill="#D55252"/>
<path d="M232.5 116.5C232.5 125.889 224.889 133.5 215.5 133.5L204.5 133.5C201.739 133.5 199.5 131.262 199.5 128.5L199.5 84.5002C199.5 81.7388 201.739 79.5002 204.5 79.5002L215.5 79.5002C224.889 79.5002 232.5 87.1114 232.5 96.5002L232.5 116.5Z" fill="#25283D"/>
</svg>
